<svg width="26" height="26" viewBox="0 0 26 26" fill="none" xmlns="http://www.w3.org/2000/svg">
<path d="M18.4166 22.4791H7.58329C2.80579 22.4791 1.35413 21.0275 1.35413 16.25V15.7083C1.35413 15.2641 1.72246 14.8958 2.16663 14.8958C3.20663 14.8958 4.06246 14.04 4.06246 13C4.06246 11.96 3.20663 11.1041 2.16663 11.1041C1.72246 11.1041 1.35413 10.7358 1.35413 10.2916V9.74998C1.35413 4.97248 2.80579 3.52081 7.58329 3.52081H18.4166C23.1941 3.52081 24.6458 4.97248 24.6458 9.74998V10.8333C24.6458 11.2775 24.2775 11.6458 23.8333 11.6458C22.7933 11.6458 21.9375 12.5016 21.9375 13.5416C21.9375 14.5816 22.7933 15.4375 23.8333 15.4375C24.2775 15.4375 24.6458 15.8058 24.6458 16.25C24.6458 21.0275 23.1941 22.4791 18.4166 22.4791ZM2.97913 16.4233C3.00079 20.15 3.76996 20.8541 7.58329 20.8541H18.4166C22.035 20.8541 22.9125 20.215 23.01 16.965C21.4608 16.5966 20.3125 15.1991 20.3125 13.5416C20.3125 11.8841 21.4716 10.4866 23.0208 10.1183V9.74998C23.0208 5.88248 22.295 5.14581 18.4166 5.14581H7.58329C3.76996 5.14581 3.00079 5.84998 2.97913 9.57665C4.52829 9.94498 5.68746 11.3425 5.68746 13C5.68746 14.6575 4.52829 16.055 2.97913 16.4233Z" fill="#25282D"/>
<path d="M10.8334 7.85415C10.3892 7.85415 10.0209 7.48581 10.0209 7.04165V4.33331C10.0209 3.88915 10.3892 3.52081 10.8334 3.52081C11.2775 3.52081 11.6459 3.88915 11.6459 4.33331V7.04165C11.6459 7.48581 11.2775 7.85415 10.8334 7.85415Z" fill="white"/>
<path d="M10.8334 15.795C10.3892 15.795 10.0209 15.4267 10.0209 14.9825V11.0067C10.0209 10.5625 10.3892 10.1942 10.8334 10.1942C11.2775 10.1942 11.6459 10.5625 11.6459 11.0067V14.9825C11.6459 15.4375 11.2775 15.795 10.8334 15.795Z" fill="white"/>
<path d="M10.8334 22.4791C10.3892 22.4791 10.0209 22.1108 10.0209 21.6666V18.9583C10.0209 18.5141 10.3892 18.1458 10.8334 18.1458C11.2775 18.1458 11.6459 18.5141 11.6459 18.9583V21.6666C11.6459 22.1108 11.2775 22.4791 10.8334 22.4791Z" fill="white"/>
</svg>
